<?xml version="1.0" standalone="no"?>
<!DOCTYPE svg PUBLIC "-//W3C//DTD SVG 20010904//EN"
 "http://www.w3.org/TR/2001/REC-SVG-20010904/DTD/svg10.dtd">
<svg version="1.0" xmlns="http://www.w3.org/2000/svg"
 width="64.000000pt" height="64.000000pt" viewBox="0 0 64.000000 64.000000"
 preserveAspectRatio="xMidYMid meet">

<g transform="translate(0.000000,64.000000) scale(0.100000,-0.100000)"
fill="#000000" stroke="none">
<path d="M185 516 c-108 -52 -126 -64 -107 -70 20 -7 22 -14 22 -76 0 -51 -4
-69 -15 -74 -18 -6 -19 -29 -4 -55 17 -26 3 -84 -27 -114 l-25 -25 27 -21 c33
-26 45 -23 62 12 10 20 11 40 3 79 -7 42 -6 56 5 69 16 18 18 45 4 54 -5 3
-10 33 -10 66 0 71 -4 71 122 8 43 -22 84 -39 92 -39 24 0 277 123 269 130
-17 15 -254 120 -271 120 -9 -1 -75 -29 -147 -64z"/>
<path d="M170 322 c0 -69 13 -86 86 -108 57 -17 87 -18 155 -3 75 16 99 44 99
114 0 30 -3 55 -6 55 -3 0 -39 -16 -81 -35 -42 -19 -82 -35 -90 -35 -7 0 -45
16 -83 35 -38 19 -72 35 -75 35 -3 0 -5 -26 -5 -58z"/>
</g>
</svg>
